<mxfile host="app.diagrams.net" modified="2022-09-12T17:37:08.553Z" agent="5.0 (Windows NT 10.0; Win64; x64) AppleWebKit/537.36 (KHTML, like Gecko) Chrome/105.0.0.0 Safari/537.36" etag="JWQw2TONcnW8Xk2--7DK" version="20.3.0" type="github">
  <diagram id="zFlE2u5ejGgroSx8xkql" name="Page-1">
    <mxGraphModel dx="2447" dy="1929" grid="1" gridSize="10" guides="1" tooltips="1" connect="1" arrows="1" fold="1" page="1" pageScale="1" pageWidth="850" pageHeight="1100" math="0" shadow="0">
      <root>
        <mxCell id="0" />
        <mxCell id="1" parent="0" />
        <mxCell id="GccgbvjNberS2pracw50-70" value="" style="edgeStyle=orthogonalEdgeStyle;rounded=0;orthogonalLoop=1;jettySize=auto;html=1;" edge="1" parent="1" source="GccgbvjNberS2pracw50-47" target="GccgbvjNberS2pracw50-69">
          <mxGeometry relative="1" as="geometry" />
        </mxCell>
        <mxCell id="GccgbvjNberS2pracw50-72" value="" style="edgeStyle=orthogonalEdgeStyle;rounded=0;orthogonalLoop=1;jettySize=auto;html=1;" edge="1" parent="1" source="GccgbvjNberS2pracw50-47" target="GccgbvjNberS2pracw50-71">
          <mxGeometry relative="1" as="geometry" />
        </mxCell>
        <mxCell id="GccgbvjNberS2pracw50-47" value="Department" style="rounded=0;whiteSpace=wrap;html=1;" vertex="1" parent="1">
          <mxGeometry x="650" y="170" width="120" height="60" as="geometry" />
        </mxCell>
        <mxCell id="GccgbvjNberS2pracw50-51" value="" style="edgeStyle=orthogonalEdgeStyle;rounded=0;orthogonalLoop=1;jettySize=auto;html=1;" edge="1" parent="1" source="GccgbvjNberS2pracw50-48" target="GccgbvjNberS2pracw50-50">
          <mxGeometry relative="1" as="geometry" />
        </mxCell>
        <mxCell id="GccgbvjNberS2pracw50-53" value="" style="edgeStyle=orthogonalEdgeStyle;rounded=0;orthogonalLoop=1;jettySize=auto;html=1;" edge="1" parent="1" source="GccgbvjNberS2pracw50-48" target="GccgbvjNberS2pracw50-52">
          <mxGeometry relative="1" as="geometry" />
        </mxCell>
        <mxCell id="GccgbvjNberS2pracw50-55" value="" style="edgeStyle=orthogonalEdgeStyle;rounded=0;orthogonalLoop=1;jettySize=auto;html=1;" edge="1" parent="1" source="GccgbvjNberS2pracw50-48" target="GccgbvjNberS2pracw50-54">
          <mxGeometry relative="1" as="geometry" />
        </mxCell>
        <mxCell id="GccgbvjNberS2pracw50-56" style="edgeStyle=orthogonalEdgeStyle;rounded=0;orthogonalLoop=1;jettySize=auto;html=1;exitX=0;exitY=0;exitDx=0;exitDy=0;" edge="1" parent="1" source="GccgbvjNberS2pracw50-48" target="GccgbvjNberS2pracw50-57">
          <mxGeometry relative="1" as="geometry">
            <mxPoint x="56" y="20" as="targetPoint" />
          </mxGeometry>
        </mxCell>
        <mxCell id="GccgbvjNberS2pracw50-58" style="edgeStyle=orthogonalEdgeStyle;rounded=0;orthogonalLoop=1;jettySize=auto;html=1;exitX=1;exitY=0;exitDx=0;exitDy=0;" edge="1" parent="1" source="GccgbvjNberS2pracw50-48" target="GccgbvjNberS2pracw50-59">
          <mxGeometry relative="1" as="geometry">
            <mxPoint x="320" y="30" as="targetPoint" />
          </mxGeometry>
        </mxCell>
        <mxCell id="GccgbvjNberS2pracw50-60" style="edgeStyle=orthogonalEdgeStyle;rounded=0;orthogonalLoop=1;jettySize=auto;html=1;exitX=0;exitY=1;exitDx=0;exitDy=0;" edge="1" parent="1" source="GccgbvjNberS2pracw50-48" target="GccgbvjNberS2pracw50-61">
          <mxGeometry relative="1" as="geometry">
            <mxPoint x="26" y="240" as="targetPoint" />
          </mxGeometry>
        </mxCell>
        <mxCell id="GccgbvjNberS2pracw50-67" value="" style="edgeStyle=orthogonalEdgeStyle;rounded=0;orthogonalLoop=1;jettySize=auto;html=1;" edge="1" parent="1" source="GccgbvjNberS2pracw50-48" target="GccgbvjNberS2pracw50-66">
          <mxGeometry relative="1" as="geometry" />
        </mxCell>
        <mxCell id="GccgbvjNberS2pracw50-48" value="Student&lt;br&gt;Info" style="whiteSpace=wrap;html=1;" vertex="1" parent="1">
          <mxGeometry x="126" y="100" width="120" height="60" as="geometry" />
        </mxCell>
        <mxCell id="GccgbvjNberS2pracw50-50" value="Name" style="ellipse;whiteSpace=wrap;html=1;" vertex="1" parent="1">
          <mxGeometry x="126" y="-40" width="120" height="60" as="geometry" />
        </mxCell>
        <mxCell id="GccgbvjNberS2pracw50-52" value="&lt;u&gt;Number&lt;/u&gt;" style="ellipse;whiteSpace=wrap;html=1;" vertex="1" parent="1">
          <mxGeometry x="320" y="100" width="120" height="60" as="geometry" />
        </mxCell>
        <mxCell id="GccgbvjNberS2pracw50-54" value="&lt;u&gt;SSN&lt;/u&gt;" style="ellipse;whiteSpace=wrap;html=1;" vertex="1" parent="1">
          <mxGeometry x="-84" y="100" width="120" height="60" as="geometry" />
        </mxCell>
        <mxCell id="GccgbvjNberS2pracw50-57" value="Birth Date" style="ellipse;whiteSpace=wrap;html=1;" vertex="1" parent="1">
          <mxGeometry x="-4" y="-20" width="120" height="60" as="geometry" />
        </mxCell>
        <mxCell id="GccgbvjNberS2pracw50-59" value="Sex" style="ellipse;whiteSpace=wrap;html=1;" vertex="1" parent="1">
          <mxGeometry x="260" y="-20" width="120" height="60" as="geometry" />
        </mxCell>
        <mxCell id="GccgbvjNberS2pracw50-63" value="" style="edgeStyle=orthogonalEdgeStyle;rounded=0;orthogonalLoop=1;jettySize=auto;html=1;" edge="1" parent="1" source="GccgbvjNberS2pracw50-61">
          <mxGeometry relative="1" as="geometry">
            <mxPoint x="-114" y="230" as="targetPoint" />
          </mxGeometry>
        </mxCell>
        <mxCell id="GccgbvjNberS2pracw50-64" style="edgeStyle=orthogonalEdgeStyle;rounded=0;orthogonalLoop=1;jettySize=auto;html=1;exitX=0;exitY=1;exitDx=0;exitDy=0;" edge="1" parent="1" source="GccgbvjNberS2pracw50-61" target="GccgbvjNberS2pracw50-65">
          <mxGeometry relative="1" as="geometry">
            <mxPoint x="-16" y="340" as="targetPoint" />
          </mxGeometry>
        </mxCell>
        <mxCell id="GccgbvjNberS2pracw50-61" value="Address,&lt;br&gt;Phone#" style="ellipse;whiteSpace=wrap;html=1;" vertex="1" parent="1">
          <mxGeometry x="-34" y="200" width="120" height="60" as="geometry" />
        </mxCell>
        <mxCell id="GccgbvjNberS2pracw50-62" value="Permanent" style="ellipse;whiteSpace=wrap;html=1;" vertex="1" parent="1">
          <mxGeometry x="-230" y="200" width="120" height="60" as="geometry" />
        </mxCell>
        <mxCell id="GccgbvjNberS2pracw50-65" value="Current" style="ellipse;whiteSpace=wrap;html=1;" vertex="1" parent="1">
          <mxGeometry x="-144" y="310" width="122" height="60" as="geometry" />
        </mxCell>
        <mxCell id="GccgbvjNberS2pracw50-66" value="Class" style="ellipse;whiteSpace=wrap;html=1;" vertex="1" parent="1">
          <mxGeometry x="126" y="240" width="120" height="60" as="geometry" />
        </mxCell>
        <mxCell id="GccgbvjNberS2pracw50-76" value="" style="edgeStyle=orthogonalEdgeStyle;rounded=0;orthogonalLoop=1;jettySize=auto;html=1;" edge="1" parent="1" source="GccgbvjNberS2pracw50-69" target="GccgbvjNberS2pracw50-75">
          <mxGeometry relative="1" as="geometry" />
        </mxCell>
        <mxCell id="GccgbvjNberS2pracw50-78" value="" style="edgeStyle=orthogonalEdgeStyle;rounded=0;orthogonalLoop=1;jettySize=auto;html=1;" edge="1" parent="1" source="GccgbvjNberS2pracw50-69" target="GccgbvjNberS2pracw50-77">
          <mxGeometry relative="1" as="geometry" />
        </mxCell>
        <mxCell id="GccgbvjNberS2pracw50-80" value="" style="edgeStyle=orthogonalEdgeStyle;rounded=0;orthogonalLoop=1;jettySize=auto;html=1;" edge="1" parent="1" source="GccgbvjNberS2pracw50-69" target="GccgbvjNberS2pracw50-79">
          <mxGeometry relative="1" as="geometry" />
        </mxCell>
        <mxCell id="GccgbvjNberS2pracw50-81" style="edgeStyle=orthogonalEdgeStyle;rounded=0;orthogonalLoop=1;jettySize=auto;html=1;exitX=0;exitY=0;exitDx=0;exitDy=0;" edge="1" parent="1" source="GccgbvjNberS2pracw50-69" target="GccgbvjNberS2pracw50-82">
          <mxGeometry relative="1" as="geometry">
            <mxPoint x="590" y="-60" as="targetPoint" />
            <Array as="points">
              <mxPoint x="630" y="39" />
              <mxPoint x="630" y="-20" />
            </Array>
          </mxGeometry>
        </mxCell>
        <mxCell id="GccgbvjNberS2pracw50-83" style="edgeStyle=orthogonalEdgeStyle;rounded=0;orthogonalLoop=1;jettySize=auto;html=1;exitX=1;exitY=0;exitDx=0;exitDy=0;" edge="1" parent="1" source="GccgbvjNberS2pracw50-69" target="GccgbvjNberS2pracw50-84">
          <mxGeometry relative="1" as="geometry">
            <mxPoint x="830" y="-50" as="targetPoint" />
            <Array as="points">
              <mxPoint x="750" y="39" />
              <mxPoint x="750" y="-20" />
            </Array>
          </mxGeometry>
        </mxCell>
        <mxCell id="GccgbvjNberS2pracw50-69" value="Major" style="ellipse;whiteSpace=wrap;html=1;rounded=0;" vertex="1" parent="1">
          <mxGeometry x="650" y="30" width="120" height="60" as="geometry" />
        </mxCell>
        <mxCell id="GccgbvjNberS2pracw50-90" style="edgeStyle=orthogonalEdgeStyle;rounded=0;orthogonalLoop=1;jettySize=auto;html=1;exitX=0;exitY=1;exitDx=0;exitDy=0;entryX=0.64;entryY=0.037;entryDx=0;entryDy=0;entryPerimeter=0;" edge="1" parent="1" source="GccgbvjNberS2pracw50-71" target="GccgbvjNberS2pracw50-89">
          <mxGeometry relative="1" as="geometry" />
        </mxCell>
        <mxCell id="GccgbvjNberS2pracw50-91" style="edgeStyle=orthogonalEdgeStyle;rounded=0;orthogonalLoop=1;jettySize=auto;html=1;exitX=0.5;exitY=1;exitDx=0;exitDy=0;entryX=0.5;entryY=0;entryDx=0;entryDy=0;" edge="1" parent="1" source="GccgbvjNberS2pracw50-71" target="GccgbvjNberS2pracw50-87">
          <mxGeometry relative="1" as="geometry" />
        </mxCell>
        <mxCell id="GccgbvjNberS2pracw50-92" style="edgeStyle=orthogonalEdgeStyle;rounded=0;orthogonalLoop=1;jettySize=auto;html=1;exitX=1;exitY=1;exitDx=0;exitDy=0;entryX=0;entryY=0;entryDx=0;entryDy=0;" edge="1" parent="1" source="GccgbvjNberS2pracw50-71" target="GccgbvjNberS2pracw50-85">
          <mxGeometry relative="1" as="geometry" />
        </mxCell>
        <mxCell id="GccgbvjNberS2pracw50-93" value="" style="edgeStyle=orthogonalEdgeStyle;rounded=0;orthogonalLoop=1;jettySize=auto;html=1;" edge="1" parent="1" source="GccgbvjNberS2pracw50-71" target="GccgbvjNberS2pracw50-86">
          <mxGeometry relative="1" as="geometry" />
        </mxCell>
        <mxCell id="GccgbvjNberS2pracw50-94" style="edgeStyle=orthogonalEdgeStyle;rounded=0;orthogonalLoop=1;jettySize=auto;html=1;exitX=1;exitY=0;exitDx=0;exitDy=0;entryX=0;entryY=0.667;entryDx=0;entryDy=0;entryPerimeter=0;" edge="1" parent="1" source="GccgbvjNberS2pracw50-71" target="GccgbvjNberS2pracw50-88">
          <mxGeometry relative="1" as="geometry" />
        </mxCell>
        <mxCell id="GccgbvjNberS2pracw50-71" value="Minor" style="ellipse;whiteSpace=wrap;html=1;rounded=0;" vertex="1" parent="1">
          <mxGeometry x="860" y="170" width="120" height="60" as="geometry" />
        </mxCell>
        <mxCell id="GccgbvjNberS2pracw50-75" value="&lt;u&gt;Name&lt;/u&gt;" style="ellipse;whiteSpace=wrap;html=1;rounded=0;" vertex="1" parent="1">
          <mxGeometry x="650" y="-110" width="120" height="60" as="geometry" />
        </mxCell>
        <mxCell id="GccgbvjNberS2pracw50-77" value="Office Number" style="ellipse;whiteSpace=wrap;html=1;rounded=0;" vertex="1" parent="1">
          <mxGeometry x="850" y="30" width="120" height="60" as="geometry" />
        </mxCell>
        <mxCell id="GccgbvjNberS2pracw50-79" value="&lt;u&gt;Department Code&lt;/u&gt;" style="ellipse;whiteSpace=wrap;html=1;rounded=0;" vertex="1" parent="1">
          <mxGeometry x="450" y="30" width="120" height="60" as="geometry" />
        </mxCell>
        <mxCell id="GccgbvjNberS2pracw50-82" value="Office Phone Number" style="ellipse;whiteSpace=wrap;html=1;" vertex="1" parent="1">
          <mxGeometry x="460" y="-50" width="120" height="60" as="geometry" />
        </mxCell>
        <mxCell id="GccgbvjNberS2pracw50-84" value="College" style="ellipse;whiteSpace=wrap;html=1;" vertex="1" parent="1">
          <mxGeometry x="800" y="-60" width="120" height="60" as="geometry" />
        </mxCell>
        <mxCell id="GccgbvjNberS2pracw50-85" value="Office Number" style="ellipse;whiteSpace=wrap;html=1;rounded=0;" vertex="1" parent="1">
          <mxGeometry x="1010" y="280" width="120" height="60" as="geometry" />
        </mxCell>
        <mxCell id="GccgbvjNberS2pracw50-86" value="College" style="ellipse;whiteSpace=wrap;html=1;" vertex="1" parent="1">
          <mxGeometry x="1050" y="170" width="120" height="60" as="geometry" />
        </mxCell>
        <mxCell id="GccgbvjNberS2pracw50-87" value="&lt;u&gt;Name&lt;/u&gt;" style="ellipse;whiteSpace=wrap;html=1;rounded=0;" vertex="1" parent="1">
          <mxGeometry x="880" y="300" width="120" height="60" as="geometry" />
        </mxCell>
        <mxCell id="GccgbvjNberS2pracw50-88" value="Office Phone Number" style="ellipse;whiteSpace=wrap;html=1;" vertex="1" parent="1">
          <mxGeometry x="1030" y="80" width="120" height="60" as="geometry" />
        </mxCell>
        <mxCell id="GccgbvjNberS2pracw50-89" value="&lt;u&gt;Department Code&lt;/u&gt;" style="ellipse;whiteSpace=wrap;html=1;rounded=0;" vertex="1" parent="1">
          <mxGeometry x="760" y="260" width="120" height="60" as="geometry" />
        </mxCell>
        <mxCell id="GccgbvjNberS2pracw50-187" value="" style="edgeStyle=orthogonalEdgeStyle;rounded=0;orthogonalLoop=1;jettySize=auto;html=1;" edge="1" parent="1" source="GccgbvjNberS2pracw50-121" target="GccgbvjNberS2pracw50-186">
          <mxGeometry relative="1" as="geometry" />
        </mxCell>
        <mxCell id="GccgbvjNberS2pracw50-189" value="" style="edgeStyle=orthogonalEdgeStyle;rounded=0;orthogonalLoop=1;jettySize=auto;html=1;" edge="1" parent="1" source="GccgbvjNberS2pracw50-121" target="GccgbvjNberS2pracw50-188">
          <mxGeometry relative="1" as="geometry" />
        </mxCell>
        <mxCell id="GccgbvjNberS2pracw50-121" value="Grade Report" style="whiteSpace=wrap;html=1;" vertex="1" parent="1">
          <mxGeometry x="-54" y="700" width="120" height="60" as="geometry" />
        </mxCell>
        <mxCell id="GccgbvjNberS2pracw50-128" style="edgeStyle=orthogonalEdgeStyle;rounded=0;orthogonalLoop=1;jettySize=auto;html=1;exitX=0.5;exitY=0;exitDx=0;exitDy=0;entryX=1;entryY=1;entryDx=0;entryDy=0;" edge="1" parent="1" source="GccgbvjNberS2pracw50-122" target="GccgbvjNberS2pracw50-48">
          <mxGeometry relative="1" as="geometry">
            <Array as="points">
              <mxPoint x="270" y="330" />
              <mxPoint x="290" y="330" />
              <mxPoint x="290" y="160" />
            </Array>
          </mxGeometry>
        </mxCell>
        <mxCell id="GccgbvjNberS2pracw50-129" style="edgeStyle=orthogonalEdgeStyle;rounded=0;orthogonalLoop=1;jettySize=auto;html=1;entryX=1;entryY=0;entryDx=0;entryDy=0;" edge="1" parent="1" source="GccgbvjNberS2pracw50-122" target="GccgbvjNberS2pracw50-121">
          <mxGeometry relative="1" as="geometry">
            <mxPoint x="216" y="470" as="sourcePoint" />
          </mxGeometry>
        </mxCell>
        <mxCell id="GccgbvjNberS2pracw50-130" value="M" style="edgeLabel;html=1;align=center;verticalAlign=middle;resizable=0;points=[];" vertex="1" connectable="0" parent="GccgbvjNberS2pracw50-129">
          <mxGeometry x="0.84" y="-1" relative="1" as="geometry">
            <mxPoint x="-9" y="-10" as="offset" />
          </mxGeometry>
        </mxCell>
        <mxCell id="GccgbvjNberS2pracw50-122" value="Has" style="rhombus;whiteSpace=wrap;html=1;" vertex="1" parent="1">
          <mxGeometry x="190" y="360" width="160" height="160" as="geometry" />
        </mxCell>
        <mxCell id="GccgbvjNberS2pracw50-131" value="1" style="text;html=1;align=center;verticalAlign=middle;resizable=0;points=[];autosize=1;strokeColor=none;fillColor=none;" vertex="1" parent="1">
          <mxGeometry x="260" y="170" width="30" height="30" as="geometry" />
        </mxCell>
        <mxCell id="GccgbvjNberS2pracw50-168" value="" style="edgeStyle=orthogonalEdgeStyle;rounded=0;orthogonalLoop=1;jettySize=auto;html=1;" edge="1" parent="1" source="GccgbvjNberS2pracw50-173" target="GccgbvjNberS2pracw50-174">
          <mxGeometry relative="1" as="geometry" />
        </mxCell>
        <mxCell id="GccgbvjNberS2pracw50-169" value="" style="edgeStyle=orthogonalEdgeStyle;rounded=0;orthogonalLoop=1;jettySize=auto;html=1;" edge="1" parent="1" source="GccgbvjNberS2pracw50-173" target="GccgbvjNberS2pracw50-175">
          <mxGeometry relative="1" as="geometry" />
        </mxCell>
        <mxCell id="GccgbvjNberS2pracw50-170" value="" style="edgeStyle=orthogonalEdgeStyle;rounded=0;orthogonalLoop=1;jettySize=auto;html=1;" edge="1" parent="1" source="GccgbvjNberS2pracw50-173" target="GccgbvjNberS2pracw50-176">
          <mxGeometry relative="1" as="geometry" />
        </mxCell>
        <mxCell id="GccgbvjNberS2pracw50-171" style="edgeStyle=orthogonalEdgeStyle;rounded=0;orthogonalLoop=1;jettySize=auto;html=1;exitX=0;exitY=0.5;exitDx=0;exitDy=0;" edge="1" parent="1" source="GccgbvjNberS2pracw50-173" target="GccgbvjNberS2pracw50-177">
          <mxGeometry relative="1" as="geometry">
            <mxPoint x="105" y="920" as="targetPoint" />
          </mxGeometry>
        </mxCell>
        <mxCell id="GccgbvjNberS2pracw50-172" style="edgeStyle=orthogonalEdgeStyle;rounded=0;orthogonalLoop=1;jettySize=auto;html=1;exitX=1;exitY=1;exitDx=0;exitDy=0;" edge="1" parent="1" source="GccgbvjNberS2pracw50-173" target="GccgbvjNberS2pracw50-178">
          <mxGeometry relative="1" as="geometry">
            <mxPoint x="385" y="1020" as="targetPoint" />
          </mxGeometry>
        </mxCell>
        <mxCell id="GccgbvjNberS2pracw50-205" style="edgeStyle=orthogonalEdgeStyle;rounded=0;orthogonalLoop=1;jettySize=auto;html=1;exitX=1;exitY=0;exitDx=0;exitDy=0;entryX=0;entryY=0.5;entryDx=0;entryDy=0;" edge="1" parent="1" source="GccgbvjNberS2pracw50-173" target="GccgbvjNberS2pracw50-203">
          <mxGeometry relative="1" as="geometry" />
        </mxCell>
        <mxCell id="GccgbvjNberS2pracw50-173" value="Section&lt;br&gt;" style="whiteSpace=wrap;html=1;" vertex="1" parent="1">
          <mxGeometry x="165" y="890" width="120" height="60" as="geometry" />
        </mxCell>
        <mxCell id="GccgbvjNberS2pracw50-174" value="&amp;nbsp;Instructor" style="ellipse;whiteSpace=wrap;html=1;" vertex="1" parent="1">
          <mxGeometry x="165" y="755" width="120" height="60" as="geometry" />
        </mxCell>
        <mxCell id="GccgbvjNberS2pracw50-175" value="Semester" style="ellipse;whiteSpace=wrap;html=1;" vertex="1" parent="1">
          <mxGeometry x="390" y="940" width="120" height="60" as="geometry" />
        </mxCell>
        <mxCell id="GccgbvjNberS2pracw50-176" value="&lt;u&gt;Course&lt;/u&gt;" style="ellipse;whiteSpace=wrap;html=1;" vertex="1" parent="1">
          <mxGeometry x="165" y="1030" width="120" height="60" as="geometry" />
        </mxCell>
        <mxCell id="GccgbvjNberS2pracw50-177" value="Year" style="ellipse;whiteSpace=wrap;html=1;" vertex="1" parent="1">
          <mxGeometry x="35" y="980" width="120" height="60" as="geometry" />
        </mxCell>
        <mxCell id="GccgbvjNberS2pracw50-178" value="&lt;u&gt;Section #&lt;/u&gt;" style="ellipse;whiteSpace=wrap;html=1;" vertex="1" parent="1">
          <mxGeometry x="270" y="1010" width="110" height="60" as="geometry" />
        </mxCell>
        <mxCell id="GccgbvjNberS2pracw50-180" style="edgeStyle=orthogonalEdgeStyle;rounded=0;orthogonalLoop=1;jettySize=auto;html=1;exitX=1;exitY=0.5;exitDx=0;exitDy=0;entryX=0;entryY=0;entryDx=0;entryDy=0;" edge="1" parent="1" source="GccgbvjNberS2pracw50-179" target="GccgbvjNberS2pracw50-173">
          <mxGeometry relative="1" as="geometry" />
        </mxCell>
        <mxCell id="GccgbvjNberS2pracw50-181" value="" style="edgeStyle=orthogonalEdgeStyle;rounded=0;orthogonalLoop=1;jettySize=auto;html=1;" edge="1" parent="1" source="GccgbvjNberS2pracw50-179" target="GccgbvjNberS2pracw50-121">
          <mxGeometry relative="1" as="geometry" />
        </mxCell>
        <mxCell id="GccgbvjNberS2pracw50-179" value="Has" style="rhombus;whiteSpace=wrap;html=1;" vertex="1" parent="1">
          <mxGeometry x="-62" y="800" width="136" height="140" as="geometry" />
        </mxCell>
        <mxCell id="GccgbvjNberS2pracw50-182" value="1" style="text;html=1;align=center;verticalAlign=middle;resizable=0;points=[];autosize=1;strokeColor=none;fillColor=none;" vertex="1" parent="1">
          <mxGeometry x="6" y="770" width="30" height="30" as="geometry" />
        </mxCell>
        <mxCell id="GccgbvjNberS2pracw50-183" value="M" style="text;html=1;align=center;verticalAlign=middle;resizable=0;points=[];autosize=1;strokeColor=none;fillColor=none;" vertex="1" parent="1">
          <mxGeometry x="116" y="850" width="30" height="30" as="geometry" />
        </mxCell>
        <mxCell id="GccgbvjNberS2pracw50-186" value="Letter Grade" style="ellipse;whiteSpace=wrap;html=1;" vertex="1" parent="1">
          <mxGeometry x="-254" y="700" width="120" height="60" as="geometry" />
        </mxCell>
        <mxCell id="GccgbvjNberS2pracw50-188" value="Number Grade" style="ellipse;whiteSpace=wrap;html=1;" vertex="1" parent="1">
          <mxGeometry x="-124" y="570" width="120" height="60" as="geometry" />
        </mxCell>
        <mxCell id="GccgbvjNberS2pracw50-190" value="" style="edgeStyle=orthogonalEdgeStyle;rounded=0;orthogonalLoop=1;jettySize=auto;html=1;" edge="1" parent="1" source="GccgbvjNberS2pracw50-196" target="GccgbvjNberS2pracw50-197">
          <mxGeometry relative="1" as="geometry" />
        </mxCell>
        <mxCell id="GccgbvjNberS2pracw50-191" value="" style="edgeStyle=orthogonalEdgeStyle;rounded=0;orthogonalLoop=1;jettySize=auto;html=1;" edge="1" parent="1" source="GccgbvjNberS2pracw50-196" target="GccgbvjNberS2pracw50-198">
          <mxGeometry relative="1" as="geometry" />
        </mxCell>
        <mxCell id="GccgbvjNberS2pracw50-192" value="" style="edgeStyle=orthogonalEdgeStyle;rounded=0;orthogonalLoop=1;jettySize=auto;html=1;" edge="1" parent="1" source="GccgbvjNberS2pracw50-196" target="GccgbvjNberS2pracw50-199">
          <mxGeometry relative="1" as="geometry" />
        </mxCell>
        <mxCell id="GccgbvjNberS2pracw50-194" style="edgeStyle=orthogonalEdgeStyle;rounded=0;orthogonalLoop=1;jettySize=auto;html=1;exitX=0;exitY=1;exitDx=0;exitDy=0;" edge="1" parent="1" source="GccgbvjNberS2pracw50-196" target="GccgbvjNberS2pracw50-201">
          <mxGeometry relative="1" as="geometry">
            <mxPoint x="835" y="990" as="targetPoint" />
          </mxGeometry>
        </mxCell>
        <mxCell id="GccgbvjNberS2pracw50-195" style="edgeStyle=orthogonalEdgeStyle;rounded=0;orthogonalLoop=1;jettySize=auto;html=1;exitX=1;exitY=1;exitDx=0;exitDy=0;" edge="1" parent="1" source="GccgbvjNberS2pracw50-196" target="GccgbvjNberS2pracw50-202">
          <mxGeometry relative="1" as="geometry">
            <mxPoint x="1155" y="990" as="targetPoint" />
          </mxGeometry>
        </mxCell>
        <mxCell id="GccgbvjNberS2pracw50-208" style="edgeStyle=orthogonalEdgeStyle;rounded=0;orthogonalLoop=1;jettySize=auto;html=1;exitX=0;exitY=0;exitDx=0;exitDy=0;entryX=0.5;entryY=1;entryDx=0;entryDy=0;" edge="1" parent="1" source="GccgbvjNberS2pracw50-196" target="GccgbvjNberS2pracw50-200">
          <mxGeometry relative="1" as="geometry" />
        </mxCell>
        <mxCell id="GccgbvjNberS2pracw50-209" style="edgeStyle=orthogonalEdgeStyle;rounded=0;orthogonalLoop=1;jettySize=auto;html=1;exitX=0;exitY=0.5;exitDx=0;exitDy=0;entryX=1;entryY=0.5;entryDx=0;entryDy=0;" edge="1" parent="1" source="GccgbvjNberS2pracw50-196" target="GccgbvjNberS2pracw50-203">
          <mxGeometry relative="1" as="geometry" />
        </mxCell>
        <mxCell id="GccgbvjNberS2pracw50-196" value="Courses" style="whiteSpace=wrap;html=1;" vertex="1" parent="1">
          <mxGeometry x="950" y="840" width="120" height="60" as="geometry" />
        </mxCell>
        <mxCell id="GccgbvjNberS2pracw50-197" value="Name" style="ellipse;whiteSpace=wrap;html=1;" vertex="1" parent="1">
          <mxGeometry x="1020" y="720" width="120" height="60" as="geometry" />
        </mxCell>
        <mxCell id="GccgbvjNberS2pracw50-198" value="Description" style="ellipse;whiteSpace=wrap;html=1;" vertex="1" parent="1">
          <mxGeometry x="1150" y="840" width="120" height="60" as="geometry" />
        </mxCell>
        <mxCell id="GccgbvjNberS2pracw50-199" value="&lt;u&gt;Course #&lt;/u&gt;" style="ellipse;whiteSpace=wrap;html=1;" vertex="1" parent="1">
          <mxGeometry x="950" y="990" width="120" height="60" as="geometry" />
        </mxCell>
        <mxCell id="GccgbvjNberS2pracw50-200" value="Semester Hours" style="ellipse;whiteSpace=wrap;html=1;" vertex="1" parent="1">
          <mxGeometry x="830" y="725" width="120" height="60" as="geometry" />
        </mxCell>
        <mxCell id="GccgbvjNberS2pracw50-201" value="Level" style="ellipse;whiteSpace=wrap;html=1;" vertex="1" parent="1">
          <mxGeometry x="820" y="950" width="110" height="60" as="geometry" />
        </mxCell>
        <mxCell id="GccgbvjNberS2pracw50-202" value="Offering Department" style="ellipse;whiteSpace=wrap;html=1;" vertex="1" parent="1">
          <mxGeometry x="1095" y="950" width="120" height="60" as="geometry" />
        </mxCell>
        <mxCell id="GccgbvjNberS2pracw50-203" value="Contains" style="rhombus;whiteSpace=wrap;html=1;" vertex="1" parent="1">
          <mxGeometry x="580" y="785" width="110" height="170" as="geometry" />
        </mxCell>
        <mxCell id="GccgbvjNberS2pracw50-206" value="M" style="text;html=1;align=center;verticalAlign=middle;resizable=0;points=[];autosize=1;strokeColor=none;fillColor=none;" vertex="1" parent="1">
          <mxGeometry x="320" y="840" width="30" height="30" as="geometry" />
        </mxCell>
        <mxCell id="GccgbvjNberS2pracw50-207" value="1" style="text;html=1;align=center;verticalAlign=middle;resizable=0;points=[];autosize=1;strokeColor=none;fillColor=none;" vertex="1" parent="1">
          <mxGeometry x="880" y="840" width="30" height="30" as="geometry" />
        </mxCell>
      </root>
    </mxGraphModel>
  </diagram>
</mxfile>
